<?xml version="1.0" encoding="UTF-8"?>
<!DOCTYPE svg PUBLIC "-//W3C//DTD SVG 1.1//EN" "http://www.w3.org/Graphics/SVG/1.1/DTD/svg11.dtd">
<!-- Creator: CorelDRAW -->
<svg xmlns="http://www.w3.org/2000/svg" xml:space="preserve" width="146.054mm" height="117.808mm" version="1.1" style="shape-rendering:geometricPrecision; text-rendering:geometricPrecision; image-rendering:optimizeQuality; fill-rule:evenodd; clip-rule:evenodd"
viewBox="0 0 8803.79 7101.21"
 xmlns:xlink="http://www.w3.org/1999/xlink"
 xmlns:xodm="http://www.corel.com/coreldraw/odm/2003">
 <defs>
  
 </defs>
 <g id="Слой_x0020_1">
  
  <g id="_50907139296">
   <path class="fil1" fill="#63A7C2" d="M442.98 4862.03c0,-108.9 50.82,-187.33 108.03,-243.63 117.63,-115.78 236.36,-108.03 372.57,-108.03 66.15,0 66.51,29.81 84.15,79.95 46.84,133.14 95.14,231.7 158.11,357.67 41.83,83.69 76.55,143.21 121.65,218.28 43.65,72.65 101,137.55 140.14,211.53 -265.17,61.78 -555.07,50.69 -763.92,-115.23 -93.75,-74.49 -220.73,-236.99 -220.73,-400.53zm-82.06 -11.72c0,147.83 58.2,289.21 143.46,384.04 12.86,14.3 25.52,28.94 39.31,42.74 195.49,195.49 473.44,242.73 773.61,201.39l148.12 -23.05c47.19,1.2 45.09,22.74 94.18,71.72 34.99,34.9 41.19,46.12 67.29,85.09 -81.16,18.91 -153.58,41.6 -245.07,59.71l-283.1 33.51 -281.91 -33.35c-68.69,-14.14 -181.31,-54.3 -232.86,-83.64l-186.23 -130.25c-290.16,-234.16 -466.42,-741.26 -127.99,-1074.2 137.62,-135.4 320.8,-178.42 536.62,-178.42 122.05,0 140.66,120.45 140.66,222.71l-140.66 0c-249.57,0 -445.44,173.29 -445.44,421.99zm7694.95 -1570.81l-3.71 -58.49c4.43,1.3 9.07,3.15 12.99,4.82 3.79,1.61 8.02,2.93 12.44,4.94 4.07,1.84 7.05,2.99 11.24,5.05 65.27,32 105.83,81.32 97.49,167.05 36.08,-34.83 29.19,0.27 40.15,-54.7 0,36.79 0.15,73.53 0.28,110.3 0.43,118.22 10.43,23.47 -23.74,32.22 -43.25,11.07 -5.44,3.54 -13.86,14.44 -0.55,0.72 -2.09,3.59 -2.66,4.33 -0.55,0.71 -2.26,3.29 -2.86,4l-17.76 17.04c-0.96,0.93 -4.76,7.7 -5.48,5.76 -0.76,-2.06 -4.33,3.73 -5.74,6.16 42.61,16.81 -28.01,418.5 -36.72,472.48 -48.65,301.74 -137.96,545.57 -257.77,821.65l-396.14 611.81 -308.26 300.63c-43.2,29.09 -31.62,32.47 -67.38,61.06l-79.54 61.33c-51.83,39.23 -105,78.22 -157.45,111.91l-337.13 210.91c-3.8,19.93 -47.64,87.14 -65.58,113.98 -13.7,20.48 -26.46,35.45 -40.19,53.22 -23.27,30.12 -20.01,37.04 -45.1,62.97 -34.99,25.63 -67.43,93.53 -119.89,135.03 -458.18,362.46 -783.71,405.42 -1428.51,452.44 -421.98,30.77 -1032.07,-13.04 -1439.44,-135.52 -107.98,-32.47 -317.91,-119.05 -363.24,-167.84 -83.8,-43.61 -124.49,-88.31 -181.2,-143.19 -112.39,-108.78 -131.19,-122.31 -218.42,-262.85 -76.87,-123.86 -6.88,-37.03 -103.33,-144.53 -0.49,-0.56 -2.64,-2.42 -3.35,-4.02 -129.1,-54.59 -204.98,-114.79 -304.32,-178.6l-326.65 -259.04c-65.03,-51.3 -85.62,-63.05 -144.25,-125.86l-212.23 -244.64c-3.21,-3.86 -19.45,-24.82 -25.53,-33.17 -395.65,-543.19 -544.75,-1032.38 -588.03,-1766.73 6.21,4.68 31.13,19.26 33.03,20.67 -4.12,-50.98 -19.06,-27.36 -47.72,-52.73l-41.48 -93.28c-2.47,-25.41 3.53,-59.24 6.05,-87.9l18.38 1.92c24.36,50.08 -6.71,52.81 26.95,57.6 -0.59,-0.63 -10.06,34.6 -7.87,-31.22 1.48,-44.44 -1.99,-7.15 6.15,-29.13 38.07,-102.85 102.86,-21.72 95.5,-154.02l2.75 -3.68c-242.53,50.69 -179.71,324.16 -166.15,503.28 45.65,602.62 130.67,431.57 -117.89,445.99 -708,41.07 -881.8,706.55 -551.2,1207.75 47.89,72.6 95.63,131.78 161.41,190.25 49.69,44.17 146.92,110.03 209.69,141.98 514.23,261.73 1140.86,13.1 1164.66,19.27l200.79 174.31c71.23,56.23 135.39,111.41 211.66,163.45l350.18 212.48c40.83,29.83 51.99,74.29 81.22,118.05 100.63,150.68 204.93,285.34 361.02,389.18 158.42,105.39 309.64,186.27 522.89,239.04 200.83,49.71 413.92,92.49 652.04,98.17 63.48,1.51 97.36,11.92 175.93,11.62 73.99,-0.28 97.38,12.64 175.23,12.32 532.7,-2.18 1160.6,-31.33 1617.45,-293.78 155.25,-89.19 290.3,-211.61 400.63,-349.58 175.19,-219.07 52.49,-163.69 268.66,-294 139.13,-83.87 207.77,-118.93 349.44,-224.94 130.51,-97.66 212.95,-190.51 308.24,-266.14l267.7 -306.68c88.55,-117.86 227.27,-330.93 284.7,-465.5 237.66,-556.86 244.43,-651.75 316.46,-1207.4 8.4,-64.77 22.43,-296.74 12.28,-347.05 -23.08,-114.41 -103.83,-162.49 -203.12,-195.52l5.23 128.88z"/>
   <path class="fil2" fill="#1C8ABD" d="M8314.11 597.88c51.24,42.41 70.08,57.54 107.73,112.41 104.13,110.54 210.88,332.52 252.79,520.03l43.55 235.62c9.96,123.23 11.51,214.9 -0.6,338.45l-31.73 220.85c-95.09,261.76 -134.87,463.92 -307.18,679.68 -91.69,114.81 -168.27,213.38 -339.7,275.39 -1.46,-87.93 -21.03,-229.71 -48.12,-286.91 -19.54,-122.53 -57.06,-226.93 -97.99,-338.37 -49.3,-114.91 -85.02,-162.91 -2.65,-270.07 -2.35,-77.02 30.69,-218.31 34.5,-317.52 3.92,-102.22 -27.58,-261.36 -19.64,-328.51l-18.51 -46.68c-65.93,-412.43 -347.7,-609.35 -297.96,-813.89 36.78,-151.19 178.72,-217.58 356.89,-181.96 87.13,17.42 314.58,115.69 368.61,201.48zm-7317.38 2576.18l-2.75 3.68c41.04,22.8 18.29,3.81 29.68,54.47 12.06,53.64 -37.31,168.48 107.08,327.8 -7.61,-38.79 -13.48,-18.52 -15.28,-46.71 -1.48,-23.14 -3.6,-3.51 2.86,-25.7 10.34,-35.49 8.1,-21.08 17.9,-35.02 -88.34,-145.88 -23.8,-528.97 10.79,-699.69 73.23,-361.39 292.67,-844.39 517.41,-1112.28 66.84,-79.68 171.35,-213.79 239.71,-264.14 41.99,-30.93 13.89,-19.46 46.84,-58.4 32.76,-38.75 78.78,-59.36 123.72,-94.68 42.03,-37.14 43.64,-37.82 91.39,-65.7 2.89,-24.76 20.11,-27.4 79.46,-72.73 89.48,-68.36 218.24,-157.59 322.2,-206.24l11.72 -2.24 -0.39 -35.05c-34.6,-201.85 74.17,-625.62 213.82,-756.58 164.33,11.04 552.95,311.64 610.2,449.5 56.26,-1.07 552.39,-158.79 1130.91,-147.74 196.66,3.76 402.95,15.48 597.5,44.72l542.6 105.21 11.27 -14.42c47.97,-149.04 394.49,-393.51 583.5,-437.2 94.47,85.55 172.65,285.86 197.76,443.79 25.98,114.3 23.94,234.47 22.66,351.81 158.22,68.77 337.65,212.85 470.24,314.01 48.66,37.13 84.2,88.26 136.55,125.63l46.16 31.7c68.81,47 85.73,85.51 146.16,158.25l87.51 99.99c16.06,20.05 4.92,4.82 22.27,23.97 233.14,257.46 463.45,766.8 531.41,1133.66 50.15,270.75 71.54,424.37 3.18,670.13l21.22 57.28c11.49,24.97 0.02,6.43 10.19,16.64 67.63,-85.46 65.41,-126.22 91.73,-232.29l-5.23 -128.88c29.48,-87.95 -43.39,-54.12 82.02,-117.2 46.44,-23.36 93.45,-53.58 135.88,-86.83 70.74,-55.43 160.55,-157.73 211.15,-234.29 607.66,-919.38 318.31,-2215.26 -513.89,-2395.71 -318.74,-69.11 -505.29,140.89 -460.1,389.74 40.68,224.04 274.71,311.93 340.71,995.74 8.71,90.22 -23.15,318.12 -53.73,381.83 -18.5,-13.56 -171.01,-295.08 -252.85,-403.58 -102.6,-136.04 -184.64,-237.75 -306.83,-361.33l-235.68 -209.76 -395.92 -272.23c-64.01,-57.56 28.75,-394.92 -199.14,-738.62 -0.35,-0.52 -24.74,-32.05 -25.58,-33.03 -53.47,-62.48 -92.62,-90.84 -228.92,-36.62 -63.63,25.3 -94.5,45.94 -148.76,73.95l-174.91 118.14c-0.96,0.75 -13.96,12.12 -18.63,16.54l-58.33 58.89c-161.36,161.42 -123.08,147.66 -284.68,108.95 -50.39,-12.06 -125.98,-29.43 -183.09,-39.62l-827.47 -63.44c-274.31,-0.62 -627.27,49.39 -892.1,104.27 -41.98,8.7 -55.46,16.05 -92.54,24.68l-341.42 -291.57c-24.03,-15.91 -14.2,-10.99 -43.24,-27.09 -156.51,-86.71 -283.51,-170.15 -385.95,-53.41 -67.87,77.34 -154.87,287.59 -179.44,383.99 -10.1,39.6 -4.86,54.76 -9.84,105.68 -9.14,93.5 -13.03,161.32 -13.03,269.23 -47.5,31.81 -94.37,55.46 -145.5,88.94 -209.74,137.32 -419.69,303.88 -590.2,488.23 -26.07,28.18 -30.89,41.54 -58.46,70.48l-209.39 271.21c-125.91,188.92 -240.35,410.06 -322.53,638.67 -70.4,195.82 -109.59,380.75 -135.84,590.92l-35.68 207.68z"/>
   <path class="fil4" fill="#66B0C7" d="M938.02 3566.5c3.31,23.78 -4.83,5.17 13.29,25.4 3.6,4.02 19.24,15.18 26.43,20.19 22.18,15.45 32.71,21.3 53.48,38.43l73.15 63.61 275.69 141.44c101.65,43.36 197.3,78.65 308.03,110.02l248.56 68.02 272.03 57.7c160.83,46.99 537.82,85.2 709.43,101.04 124.17,11.45 247.83,24.1 373.01,35.41 119.98,10.83 272.89,14.95 380.53,33.45 68.17,-7.5 274.37,12.54 358.26,17.35 126.58,7.25 247.65,7.75 375.12,7.78 247.5,0.04 517.65,5.64 759.38,-9.52 362.37,-17.68 717.4,-41.44 1073.68,-89.16 150.73,-20.19 879.57,-122.17 968.57,-180.13 62.96,-12.41 316.53,-79.02 351.66,-107.36 73.85,-15.27 141.85,-50.52 211.47,-80.39 32.27,-13.85 64.2,-28.85 94.84,-45.79 42.28,-23.39 61.27,-45.52 102.85,-60.22 6.62,-27.86 -10.95,-5.49 29.26,-29.39 36.79,-21.86 7.2,7.4 45.19,-25.32l-3.75 49.93c22.16,-50.87 1.09,-47.69 48.04,-88.49 32.18,-27.97 54.93,-33.63 68.43,-78.08 1.41,-2.43 4.98,-8.22 5.74,-6.16 0.72,1.94 4.52,-4.82 5.48,-5.76l17.76 -17.04c0.6,-0.72 2.31,-3.29 2.86,-4 0.57,-0.74 2.1,-3.6 2.66,-4.33 8.43,-10.9 -29.39,-3.36 13.86,-14.44 34.18,-8.75 24.17,86 23.74,-32.22 -0.13,-36.78 -0.28,-73.51 -0.28,-110.3 -10.96,54.96 -4.07,19.86 -40.15,54.7 8.34,-85.73 -32.21,-135.06 -97.49,-167.05 -4.2,-2.06 -7.17,-3.21 -11.24,-5.05 -4.42,-2.01 -8.65,-3.33 -12.44,-4.94 -3.92,-1.68 -8.56,-3.53 -12.99,-4.82l3.71 58.49c-26.32,106.07 -24.11,146.84 -91.73,232.29 -15.33,60.34 -3.7,13.52 -46.75,56.47 -24.28,24.22 -15.11,23.61 -44.17,49.29 -31.63,27.94 -76.89,51.26 -120.81,72.44 -192.59,173.23 -1247.11,362.3 -1536.48,393.73 -1153.25,125.26 -2489.43,138.93 -3641.2,-41.16 -270.09,-42.24 -539.38,-89.09 -797.67,-162.88 -103.67,-29.61 -265.38,-80.69 -356.1,-124.65l-227.5 -135.56c-15.47,-11.76 -22.95,-13.95 -34.82,-24.08 -29.04,-24.77 -15.42,-10.51 -27.9,-35.37 -144.39,-159.32 -95.02,-274.16 -107.08,-327.8 -11.39,-50.66 11.36,-31.67 -29.68,-54.47 7.35,132.3 -57.43,51.17 -95.5,154.02 -8.14,21.98 -4.67,-15.31 -6.15,29.13 -2.19,65.82 7.28,30.59 7.87,31.22 -33.66,-4.79 -2.59,-7.52 -26.95,-57.6l-18.38 -1.92c-2.52,28.66 -8.51,62.5 -6.05,87.9l41.48 93.28c28.66,25.36 43.59,1.75 47.72,52.73z"/>
   <path class="fil5" fill="#1D8CC2" d="M2565.64 6072.81c21.49,2.41 326.57,138.09 394.17,163.79 139.84,53.17 291.59,90.31 439.5,122.82 887.53,195.03 1887.46,154.49 2745.75,-144.41 76.14,-26.52 142.95,-64.3 217.48,-84.24 64.2,-51.6 554.26,-255.08 898.09,-640.45 285.25,-319.73 392.79,-433.27 594.17,-941.55 73.39,-185.26 193.77,-636.41 183.37,-839.79l3.75 -49.93c-37.99,32.72 -8.4,3.46 -45.19,25.32 -40.22,23.9 -22.65,1.53 -29.26,29.39l-70.21 435.93c-123.96,478.26 -325.77,922.01 -674.98,1266.93 -90.92,89.8 -127.43,142.11 -233.31,223.88 -23.04,17.79 -28,17.09 -54.67,39.44 -67.05,56.18 -191.3,148.94 -270.06,189.44 -64.98,43.57 -134.08,81.85 -207.57,119.18 -119.23,104.26 -619.96,242.83 -812.67,296.19 -84.69,29.9 -324.45,57.79 -429.3,70.57 -152.44,18.57 -306.63,26.7 -462.18,31.93 -107.73,4.41 -758.08,11.01 -881.41,-32.15 -2.24,-0.78 -7.14,-0.41 -8.72,-4.26 -1.56,-3.8 -5.83,-2.69 -8.43,-4.54 -90.97,13.32 -204.72,-23.6 -297.94,-36.65 -81.03,-11.34 -219.51,-23.07 -275.69,-68.54 -152.67,6.35 -581.8,-201.41 -693.82,-258.72 -58.66,-23.12 -253.14,-136.48 -275.74,-173.67 -58.82,-24.53 -141.89,-95.18 -202.6,-138.83l-116.67 -105.38c-60.22,-55.17 -90.87,-65.22 -167.4,-149.06l-197.13 -236.66c-73.07,-101.63 -107.3,-171.51 -168.96,-271.65 -179.12,-321.38 -332.53,-800.71 -353.63,-1192.98l-73.15 -63.61c-9.42,506.68 245.47,1176.99 481.4,1501.78l164.3 210.51c29.21,37.15 26.34,27.82 58.02,58.93 43.8,43.01 70.77,84.25 118.51,128.14l264.25 228.04c110.47,85.24 434.39,278.59 447.95,294.89z"/>
   <path class="fil7" fill="#488CA7" d="M1130.73 3560.01c12.48,24.86 -1.14,10.6 27.9,35.37 11.87,10.13 19.35,12.32 34.82,24.08l227.5 135.56c90.72,43.96 252.44,95.04 356.1,124.65 258.29,73.79 527.58,120.64 797.67,162.88 1151.77,180.1 2487.94,166.42 3641.2,41.16 289.38,-31.43 1343.89,-220.5 1536.48,-393.73l-14.47 -67.41c-68.92,16.69 -157.47,71.27 -238.03,102.23 -80.75,31.03 -172.4,58.87 -256.59,83.21 -179.83,51.99 -373.56,99.22 -564.16,127.53 -51.42,21.76 -479.32,80.6 -520.7,69.65 -101.61,42.77 -979.56,87.82 -1154.99,88.96 -825.81,5.33 -1508.71,0.95 -2330.46,-116.38 -499.07,-71.26 -537.56,-91.76 -1001.18,-210.67 -106.4,-41.52 -208.08,-75.1 -303.91,-123.86 -47.18,-24 -90.86,-55.05 -128.99,-81.55 -65.59,-45.58 -59.92,-42.6 -102.71,-109.1 -9.8,13.94 -7.56,-0.46 -17.9,35.02 -6.46,22.19 -4.34,2.56 -2.86,25.7 1.8,28.19 7.67,7.91 15.28,46.71z"/>
   <path class="fil11" fill="#00689D" d="M4027.68 2572.96c97.82,-17.6 209.46,-31.63 291.06,-117.76 33.25,-35.09 10.18,1.57 33.88,-38.67 62.54,36.85 165.91,161.68 328.23,164.46 -40.28,133.58 -175.73,292.61 -334.42,293.53 -73.39,0.42 -188.54,-64.89 -215.6,-94.2 -36.29,-39.33 -78.76,-132.68 -103.15,-207.36zm-497.77 -216.08c29.6,26.9 25.24,35.43 48.41,61.51 23.49,26.44 43.27,29.3 53.12,55 37.02,19.31 93.25,50.78 140.28,68.68 62.89,23.93 111.35,23.45 169.61,39.79 14.62,65.43 53.98,123.6 58.4,177.87 42.79,24.39 160.28,245.02 409.5,196.81 245.04,-47.4 299.32,-258.02 335.49,-286.59 27.49,-109.46 35.25,-67.04 139.68,-82.41 43.94,-6.47 131.48,-29.33 153.67,-58.39 47.08,-20.4 66.75,-30.98 101.33,-62.12 31.97,-28.81 41.33,-54.74 80.42,-73.47 8.43,-203.58 -104.64,-14.34 -191.8,43.19 -64.31,42.45 -158.98,66.69 -247.78,65.15 -284.94,-4.94 -349.18,-174.8 -410.38,-210.38 -26.4,16.85 -290.23,377.39 -693.99,88.04 -44.55,-31.92 -60.51,-77.83 -77.72,-88.61 -61.93,-38.78 -78.26,10.37 -68.24,65.92z"/>
   <path class="fil13" fill="#02212E" d="M5586.24 1481.75c121.7,-38.88 186.52,167.23 43.45,197.63 -139.98,29.74 -154.69,-162.09 -43.45,-197.63zm-208.34 133.21c-26.35,50.92 -7.09,107.62 -1.35,164.11 32.22,39.15 23.88,65.46 75.23,113.87 33.94,32.01 77.8,60.39 136.46,74.58 136,32.91 235.41,-32.39 297.97,-89.65 12.42,-28.87 20.06,-32.3 34.02,-60.27 12.29,-24.63 19.13,-54.08 28.84,-78.7 4.92,-173.87 -27.87,-167.57 -85.44,-272.31 -35.01,-8.93 -70.26,-40.71 -129.09,-55.1 -55.91,-13.68 -115.22,-11.63 -168.43,4.72 -94.37,28.99 -166.96,97.23 -188.21,198.75z"/>
   <path class="fil15" fill="#0DA5E7" d="M5260.01 6216.21l-9.19 51.11c-55.69,-27.52 18.89,66.14 6.31,-0.3 -20.17,-20.79 -0.07,27.58 -5.15,-6.15 -3.21,1.51 0.07,1.86 -1.16,6.46l12.62 -0.6c-10.38,4.95 109.92,-5.61 -12.62,0.6 -31.78,1.61 34.04,-18.57 0,0 45.03,30.41 -33.66,-24.59 6.31,-0.3 32.88,-1.11 -9.07,61.57 0.3,66.37 34.94,17.9 9.85,4.82 130.06,-9.82 104.85,-12.78 171.81,-8.93 256.5,-38.83 2.85,-1.98 6.67,-4.21 8.84,-5.52 45.56,-27.43 109.95,-56.31 135.34,-103.79 -37.14,-24.75 -21.1,4.01 -16.14,-37.93 4.83,-40.9 86.32,-111.67 66.19,-290.88 -65.15,21.17 9.54,21.68 -51.81,62.74 -22.63,15.15 2.64,0.16 -18.04,7.3 -0.27,0.1 -19.81,5.73 -21.15,6.06 -26.83,6.67 -23.62,3.95 -35.61,7.5 -1.71,0.5 -5.07,1.38 -6.77,1.99 -1.76,0.64 -5.12,1.78 -6.87,2.54 -38.9,17.17 -24.24,19.7 -50.89,51.59 -24.61,29.45 -33.53,19.39 -70.16,59.12 -61.84,-66.49 -80.15,-9.67 -148.3,27.93 -51.09,28.18 -4.38,23.12 -59.63,33.21 -28.29,5.17 -4.95,-20.58 -45.03,-6.59l-44.93 16.27 -14.06 90.09c-0.69,-1.66 -2.87,6.82 -4.96,9.84z"/>
   <path class="fil17" fill="#138BC4" d="M4027.68 2572.96c24.39,74.68 66.86,168.03 103.15,207.36 27.05,29.31 142.21,94.62 215.6,94.2 158.69,-0.92 294.14,-159.95 334.42,-293.53 -162.31,-2.78 -265.68,-127.61 -328.23,-164.46 -23.7,40.24 -0.63,3.58 -33.88,38.67 -81.6,86.13 -193.24,100.16 -291.06,117.76z"/>
   <path class="fil18" fill="#29D5FF" d="M6140.8 3364.71c9.28,36.09 27.59,-18.37 -6.83,13.59l0 0c0.99,2.24 -0.52,-3.32 0,0l73.9 53.1c109.6,184.38 72.63,120.01 107.84,104.06 1.99,2.4 -0.69,-4.24 0,0l93.77 33.82c0,0 0,0 0,0 42.25,13.89 91.58,24.61 98.55,42.12 4.05,-93.08 56.46,-47.03 83.51,-111.53 0,-0.01 -125.45,-10.52 -125.43,-15.75 -95.12,-17.25 -52.24,-5.08 -68.3,29.87l5.59 -8.2c0.07,-0.72 0.88,-4.12 0.77,-4.95 -4.14,-32.04 -6.27,-14.68 -20.3,-25.22l-148.25 -52.27c-66.62,-0.02 -25.41,8.46 -25.47,8.66 3.82,-28.51 -5.45,-6.35 35.17,-23.56 -30.46,-46.55 -55.99,-56.97 -56.96,-82.63 -0.15,-3.86 9.58,-35.29 10.31,-36.75 27,-53.7 80.77,-50.47 127.01,-34.31 161.57,56.47 117.2,75.31 159.12,146.34 33.95,5.41 -20.34,-11.46 -2.09,14.14 2.75,3.87 -18.01,66.63 -16.6,68.9 34.41,6.64 82.87,13.65 125.43,15.75 40.63,-36.99 85.59,-67.04 118.66,-128.41 -70.38,-5.2 7.32,-15.02 -57.05,-2.59 -43.68,8.44 -22.09,6.77 -32.68,16.23 -0.68,-109.72 6.4,13.36 -22.54,-43.56 -0.61,-1.2 -1.77,-4.29 -2.37,-5.56l-4.73 -13.27c-21.61,-39.68 5.23,-25.76 -38.19,-30.7 -54.99,-6.26 0.57,-1.74 -37.67,11.03 -13.72,-62.2 -2.86,13.89 -3.89,-27.24 -0.73,-29.33 -0.04,-41.85 -3.94,-74.37 -5.76,-0.04 -39.16,-0.09 -42.97,0.06 -98.07,3.74 -43.3,19.21 -43.03,19.43 15.8,-24.33 8.64,-44.77 3.82,-65.65l-37.4 -108.6c-8.17,-18.45 -4.49,-5.71 -4.83,-9.13 -0.2,-2.07 -1.33,-3.16 -2.59,-4.23 12.92,-6.08 31.79,-10.98 39.93,-19.92 21.36,-23.48 41.18,7.49 1.74,-23.16 -72,3.08 -155.5,92.18 -187.71,137.09 -53.83,75.05 -55.5,176.16 -93.32,237.36z"/>
   <path class="fil19" fill="#0C84BD" d="M6168.17 3085.09c-59.16,125.43 -47.23,119.97 -78.19,251 21.4,19.77 15.26,17.61 50.83,28.62 37.81,-61.21 39.49,-162.31 93.32,-237.36 32.21,-44.91 115.72,-134.01 187.71,-137.09 41.42,-31.74 120.65,-31.28 178.31,-17.65 64.93,15.35 96.02,48.08 124.43,86.02 71.88,95.99 51.89,258.25 -14.36,312.84 -33.06,61.37 -78.03,91.42 -118.66,128.41 -33.79,60.06 -89.92,49.07 -83.24,114.71 92.55,39.81 212.45,-114.84 258.56,-177.28 22.33,-30.24 43.13,-71.82 68.54,-99.11 4.35,-72.42 26.66,-119.56 11.63,-203.39 -11.68,-65.15 -49.92,-110.31 -68.47,-151.15 -76,-73.29 -208.39,-121.86 -350.91,-85.31 -47.2,12.1 -126.46,57.34 -157.44,77.67 -42.66,28.01 -71.83,72.82 -102.06,109.06z"/>
   <path class="fil20" fill="#15B3ED" d="M5260.01 6216.21c2.09,-3.02 4.27,-11.49 4.96,-9.84l14.06 -90.09 44.93 -16.27c40.08,-13.99 16.75,11.77 45.03,6.59 55.25,-10.09 8.54,-5.03 59.63,-33.21 68.14,-37.6 86.46,-94.41 148.3,-27.93 36.63,-39.73 45.55,-29.67 70.16,-59.12 26.65,-31.89 11.99,-34.42 50.89,-51.59 1.75,-0.77 5.11,-1.9 6.87,-2.54 1.7,-0.61 5.06,-1.49 6.77,-1.99 12,-3.55 8.78,-0.83 35.61,-7.5 1.34,-0.33 20.88,-5.97 21.15,-6.06 20.68,-7.14 -4.59,7.85 18.04,-7.3 61.35,-41.06 -13.35,-41.57 51.81,-62.74 -69.45,-214.72 -250.29,-171.78 -394.42,-63.35 -151.31,113.83 -194.58,242.64 -183.78,432.93z"/>
   <path class="fil13" fill="#02212E" d="M3260.71 1583.5c-21.43,19.89 -23.03,26.31 -31.97,44.83 -2.31,40.71 7.19,45.25 -42.8,45.25l2.82 5.35c0.13,0.89 1.01,3.97 0.49,4.92 0,0 -2.88,9.9 -83.5,19.07 -81.29,9.24 -40.87,-44.58 -119.04,-50.65 9.65,35.76 4.86,52.5 31.11,76.58 27.73,25.46 17,29.78 39.22,3.47l-21.55 40.51c-7.15,18.35 -4.56,7.26 -7.58,29.82 -2.39,-36.42 -36.3,-13.39 -41.03,-23.69 -1.96,-4.26 -7.99,-0.42 -11.9,0.24 1.66,2.42 4.1,5.64 5.26,7.07 52.83,66.3 79.99,54.79 71.05,111.8 44.41,53.68 175.68,53.01 247.24,29.34 81.69,-27.03 148.33,-90.34 171.43,-170.95l21.88 -59.43c-28.34,-32.6 -32.73,-83.18 -36.26,-128.83 -26.12,62.13 -6.07,49.51 -4.54,52.52 -1.37,-2.32 -4.72,-4.77 -5.72,-5.74l-48.4 -58.5c-29.41,5.25 -34.33,3.9 -61.55,16.4 -41.34,18.98 -15.5,2.18 -32.23,24.6 -1.53,-0.44 -3.55,-2.24 -4.07,-2.5l-25.15 -9.55c-0.92,-0.24 -5.8,1.24 -6.5,-1.12 -0.71,-2.42 -4.51,-0.34 -6.72,-0.8z"/>
   <path class="fil19" fill="#0C84BD" d="M1769 2897.93c-56.11,124.27 -67.7,199.91 -13.43,334.57 37.42,92.86 134.31,208.01 211.21,235.93 54.47,13.91 45.4,-9.89 48.96,-38.74 -34.79,-26.88 -60.59,-53.32 -79.05,-83.22 -71.91,-56.22 -160.82,-218.62 -125.13,-339.42 43.62,-147.64 145.06,-170.76 319.34,-149.74l75.37 36.43c71.38,58.66 145.7,128.72 176.16,215.51 25.45,72.5 5.09,78.01 72.18,82.44 5.5,-33.06 12.91,-69.04 -6.82,-99.75 -18.39,-93.34 -77.64,-148.14 -113.55,-200.41 -80.8,-48.92 -145.69,-120.01 -286.04,-124.27 -59.11,-1.8 -117.96,8.08 -170.13,35.99 -49.3,26.37 -76.12,60.75 -109.05,94.67z"/>
   <path class="fil21" fill="#021C2C" d="M2940.75 1532.91c-43.7,53.82 -21.72,134.51 -27.96,198.05l23.49 32.87c27.15,73.38 56.26,101.85 115.02,134.22 8.94,-57.01 -18.22,-45.5 -71.05,-111.8 -1.15,-1.43 -3.59,-4.65 -5.26,-7.07 3.91,-0.66 9.94,-4.5 11.9,-0.24 4.73,10.3 38.64,-12.73 41.03,23.69 3.02,-22.56 0.43,-11.46 7.58,-29.82l21.55 -40.51c-22.22,26.32 -11.49,21.99 -39.22,-3.47 -26.24,-24.08 -21.46,-40.81 -31.11,-76.58 78.16,6.08 37.75,59.89 119.04,50.65 80.62,-9.17 83.5,-19.07 83.5,-19.07 0.52,-0.95 -0.37,-4.03 -0.49,-4.92l-2.82 -5.35c49.99,0 40.49,-4.54 42.8,-45.25 -261.75,82.97 -178.66,-249.91 -23.76,-173.64 51.12,25.17 46.82,59.93 55.73,128.81 2.21,0.46 6.02,-1.62 6.72,0.8 0.69,2.35 5.58,0.88 6.5,1.12l25.15 9.55c0.52,0.27 2.54,2.06 4.07,2.5 16.73,-22.42 -9.11,-5.62 32.23,-24.6 27.22,-12.5 32.14,-11.15 61.55,-16.4l48.4 58.5c1,0.97 4.35,3.42 5.72,5.74 -1.53,-3.01 -21.59,9.61 4.54,-52.52 3.53,45.64 7.91,96.23 36.26,128.83 3.89,-86.47 -2.46,-121.52 -35.2,-189.42 -48.86,-77.78 -135.91,-152.8 -271.09,-145.4 -125.13,6.85 -218.31,83.22 -244.81,170.71z"/>
   <path class="fil22" fill="#0C89C3" d="M5285.75 5836.9c-57.66,83.01 -125.79,177.11 -104.41,313.41 12.58,66.44 13.79,89.49 69.48,117.01l9.19 -51.11c-10.81,-190.29 32.47,-319.1 183.78,-432.93 144.13,-108.43 324.98,-151.38 394.42,63.35 20.13,179.21 -61.35,249.97 -66.19,290.88 -4.96,41.94 -20.99,13.18 16.14,37.93 8.61,-25.94 105.62,-109.52 127.75,-190.8 32.59,-119.74 -10.33,-176.93 -44.13,-259.6 -56.7,-28.96 -47.83,-64.08 -137.57,-93.8 -192.05,-63.59 -357.24,101.95 -448.46,205.68z"/>
   <path class="fil23" fill="#25D2FE" d="M6421.83 2990.26c39.43,30.65 19.62,-0.32 -1.74,23.16 -8.14,8.94 -27,13.83 -39.93,19.92 1.26,1.07 2.39,2.16 2.59,4.23 0.34,3.42 -3.34,-9.31 4.83,9.13l37.4 108.6c4.83,20.87 11.98,41.32 -3.82,65.65 -0.27,-0.22 -55.04,-15.69 43.03,-19.43 3.81,-0.15 37.2,-0.1 42.97,-0.06 3.91,32.52 3.21,45.05 3.94,74.37 1.02,41.13 -9.83,-34.96 3.89,27.24 38.23,-12.77 -17.32,-17.29 37.67,-11.03 43.41,4.94 16.58,-8.98 38.19,30.7l4.73 13.27c0.6,1.28 1.77,4.36 2.37,5.56 28.94,56.91 21.86,-66.16 22.54,43.56 10.59,-9.46 -11,-7.79 32.68,-16.23 64.36,-12.44 -13.33,-2.61 57.05,2.59 66.25,-54.59 86.24,-216.85 14.36,-312.84 -28.41,-37.94 -59.5,-70.67 -124.43,-86.02 -57.66,-13.63 -136.88,-14.09 -178.31,17.65z"/>
   <path class="fil24" fill="#23BCF5" d="M3313.17 6116.77c12.77,55.08 40.66,83.26 14.85,125.52l-48.26 -5.66 0.55 4.47c56.17,45.47 194.66,57.2 275.69,68.54 93.23,13.05 198.63,53.56 289.6,40.24l82.82 22.32c0.45,7.5 39.09,-2.46 24.68,-18.35 -0.84,-0.93 0.61,0.87 0,0 -0.66,-0.95 40.51,-0.34 40.54,-2.8 2.48,-1.59 -23.86,-92.64 -22.56,-90.27 1.31,2.41 -40.23,5.88 -38.36,5.15l0 0 -2.12 0.29c-22.6,-23.16 -48.66,-77.44 -65.68,-112.38 -59.25,4.16 -16.45,-24.71 -77.85,-21.02 -74.89,4.51 29.63,31.77 -144.09,-6.73l-216.42 1.98c-32.27,-22.58 -39.23,-12.72 -113.39,-11.3z"/>
   <path class="fil26" fill="#2EA8DA" d="M3243.11 6047.91c-11.34,82.93 21.67,124.34 36.66,188.71l48.26 5.66c25.8,-42.25 -2.09,-70.43 -14.85,-125.52 -13.65,-241.61 272.22,-243 490.16,-19.72l61.59 56.78c17.02,34.94 43.09,89.22 65.68,112.38l40.48 -5.44 3.29 -53.46 -10.89 -40.58c-28.4,-25.59 -40.95,-57.71 -53.85,-87.01 -61.47,-81.19 -197.61,-169.31 -307.16,-202.18l-56.09 -22.1c-72.77,20.15 -131.98,4.38 -201.84,44.75 -45.48,26.28 -81.75,79.37 -101.43,147.73z"/>
   <path class="fil27" fill="#4ADCFE" d="M1936.69 3346.48c18.46,29.9 44.27,56.34 79.05,83.22l2.88 -12.19c0.16,-1.21 18.44,4.96 18.6,3.39l96.9 -56.86c4.96,-98.74 38.14,2.06 80.89,-48.78 42.4,-50.42 37.64,-76.4 65.47,-62.95 4.05,-4.39 -17.28,23.83 58.4,-35.18 -7.29,-53.77 17.64,21.75 59.31,-21.87 22.12,-21.98 -6.92,37.2 0,0l0 0c54.18,-63 -204.37,-346.78 -191.91,-301.5l-75.37 -36.43 -51.28 10.63c-19.47,1.42 -41.05,0.73 -60.71,1.27 5.12,4.61 21.64,0.24 -4.43,46.23 -50.48,89.03 -48.57,60.01 -35.17,121.85l-36.42 212.52c-8.98,68.82 14.07,69.06 -6.2,96.65z"/>
   <path class="fil28" fill="#2AC5F9" d="M3313.17 6116.77c74.15,-1.43 81.12,-11.28 113.39,11.3l216.42 -1.98c173.72,38.5 69.2,11.24 144.09,6.73 61.4,-3.7 18.6,25.18 77.85,21.02l-61.59 -56.78c-217.93,-223.28 -503.81,-221.89 -490.16,19.72z"/>
   <path class="fil29" fill="#59DFFF" d="M1936.69 3346.48c20.27,-27.59 -2.77,-27.83 6.2,-96.65l36.42 -212.52c-13.4,-61.84 -15.32,-32.82 35.17,-121.85 26.07,-45.99 9.55,-41.63 4.43,-46.23 19.66,-0.54 41.24,0.15 60.71,-1.27l51.28 -10.63c-174.28,-21.02 -275.72,2.09 -319.34,149.74 -35.68,120.8 53.23,283.2 125.13,339.42z"/>
   <path class="fil30" fill="#26D2FF" d="M6466.13 3484.13c38.89,6.36 19.23,-46.06 18.69,-83.04 -41.92,-71.03 2.45,-89.86 -159.12,-146.34 -46.25,-16.16 -100.01,-19.39 -127.01,34.31 -0.73,1.45 -10.46,32.88 -10.31,36.75 0.97,25.67 26.5,36.09 56.96,82.63 -40.62,17.21 -31.34,-4.94 -35.17,23.56 0.05,-0.2 -41.15,-8.68 25.47,-8.66l148.25 52.27c14.03,10.54 16.15,-6.82 20.3,25.22 0.11,0.83 -0.69,4.23 -0.77,4.95l-5.59 8.2c16.06,-34.94 -26.82,-47.12 68.3,-29.87z"/>
   <path class="fil31" fill="#F6FEFF" d="M5586.24 1481.75c-111.24,35.54 -96.52,227.37 43.45,197.63 143.06,-30.39 78.25,-236.51 -43.45,-197.63z"/>
   <path class="fil31" fill="#F6FEFF" d="M3228.74 1628.33c8.94,-18.52 10.54,-24.94 31.97,-44.83 -8.91,-68.87 -4.62,-103.64 -55.73,-128.81 -154.9,-76.27 -237.99,256.61 23.76,173.64z"/>
   <path class="fil32" fill="#368BAF" d="M7734.14 3607.69l3.8 14.88 14.47 67.41c43.92,-21.18 89.19,-44.49 120.81,-72.44 29.05,-25.68 19.89,-25.07 44.17,-49.29 43.05,-42.95 31.41,3.87 46.75,-56.47 -10.16,-10.21 1.3,8.34 -10.19,-16.64l-21.22 -57.28c-70.54,70.38 -96.36,127.63 -198.59,169.81z"/>
  </g>
 </g>
</svg>
