<?xml version="1.0" encoding="UTF-8"?>
<!DOCTYPE svg PUBLIC "-//W3C//DTD SVG 1.1//EN" "http://www.w3.org/Graphics/SVG/1.1/DTD/svg11.dtd">
<!-- Creator: CorelDRAW -->
<svg xmlns="http://www.w3.org/2000/svg" xml:space="preserve" width="146.255mm" height="118.038mm" version="1.1" style="shape-rendering:geometricPrecision; text-rendering:geometricPrecision; image-rendering:optimizeQuality; fill-rule:evenodd; clip-rule:evenodd"
viewBox="0 0 1972648 1592059"
 xmlns:xlink="http://www.w3.org/1999/xlink"
 xmlns:xodm="http://www.corel.com/coreldraw/odm/2003">
 <defs>
  <style type="text/css">
   <![CDATA[
    .str0 {stroke:#373535;stroke-width:2698;stroke-miterlimit:22.9256}
    .fil0 {fill:#FDFCFC}
   ]]>
  </style>
 </defs>
 <g id="Слой_x0020_1">
  <metadata id="CorelCorpID_0Corel-Layer"/>
  <path class="fil0 str0" d="M1434218 23939c51389,76512 29690,151881 44538,164442l87930 61664 53672 46820c27408,27408 45679,50248 68519,81080 18274,23981 52531,86787 55958,90214 6852,-14847 14847,-66235 12561,-85648 -14847,-153022 -67378,-172437 -76512,-222682 -10278,-55954 31974,-102774 102775,-87930 186137,41110 251228,331170 115336,536722 -11419,17129 -31977,39969 -46820,52531 -10278,6854 -20553,13706 -30832,19416 -28549,13702 -11419,5709 -18266,26273 21698,6850 39969,18270 45679,43393 2282,11423 -1145,62808 -3427,77655 -15988,124473 -17129,145026 -70801,270644 -12561,29690 -43397,77653 -63951,103916l-59381 68519c-21699,17129 -39969,37683 -68519,59381 -31974,23981 -47962,31974 -78794,50244 -47962,29690 -20554,17127 -60523,66233 -23981,30833 -54814,58240 -89073,77653 -102775,59381 -243236,65092 -361999,66233 -17131,0 -22840,-3427 -38828,-3427 -18274,0 -25126,-2282 -39969,-2282 -52531,-1144 -100493,-10278 -146172,-21698 -46820,-12561 -81079,-29690 -116480,-53672 -35401,-22839 -58240,-53674 -81080,-86789 -5709,-10275 -9134,-20554 -18270,-26263l-77653 -47962c-17131,-11423 -31974,-23984 -47962,-36545l-44538 -38824c-5709,-1141 -146167,53672 -260365,-4568 -14846,-6854 -36541,-21698 -46820,-31977 -14847,-12561 -26266,-26263 -36545,-42252 -74225,-111911 -35401,-261510 123331,-270644 55958,-3427 36546,35401 26267,-99350 -3427,-39968 -17129,-101632 37683,-113052l7993 -45679c5709,-47962 13702,-89073 29690,-132465 18270,-51389 44534,-100495 71942,-142747l47962 -61664c5709,-5709 6852,-9134 12561,-14843 37683,-41110 85645,-78798 132465,-109629 11423,-7996 21698,-12564 31977,-19416 0,-25122 1145,-39969 3427,-60523 1141,-11420 0,-14847 2282,-23981 4568,-21698 23981,-68519 39969,-85648 22840,-26263 51389,-7996 85648,11420 6852,3425 4570,3425 10279,6852l76512 65092c7993,-2282 11420,-3423 20554,-5709 59382,-12561 138179,-23981 199843,-22840l184996 13702c12561,2282 29690,5707 41110,9134 35400,7993 27407,11420 62808,-25122l13702 -12561c1138,-1141 3425,-3427 4566,-3427l38828 -27408c11420,-5709 19413,-10279 33115,-15988 30836,-12558 38828,-5707 51389,7996 0,0 5709,6852 5709,7993z"/>
 </g>
</svg>
